<svg enable-background="new 0 0 512 512" fill="#93f3ac" viewBox="0 0 512 512" xmlns="http://www.w3.org/2000/svg"><g transform="translate(1 1)"><path d="m365.933 289.133c80.214 0 145.067-64.853 145.067-145.066s-64.853-145.067-145.067-145.067c-59.821 0-111.091 36.074-133.297 87.684-6.768-1.454-13.535-2.351-20.303-2.351-61.44 0-110.933 52.907-110.933 117.76v44.373c0 30.987 10.283 64.132 27.439 90.91l-8.665 25.996c-.698 2.095-.807 4.191.106 6.286-27.914 5.25-58.78 17.685-99.092 38.941-13.655 6.828-22.188 20.481-22.188 35.841v58.027c0 5.12 3.413 8.533 8.533 8.533h153.6 102.4 153.6c5.12 0 8.533-3.413 9.387-8.533v-57.173c0-15.36-8.533-29.013-22.187-35.84-40.451-21.329-72.024-33.776-99.644-38.995.778-2.362 1.444-4.723.657-7.085l-8.986-26.958c10.436-16.774 18.133-35.879 22.411-55.104 14.783 5.066 30.646 7.821 47.162 7.821zm0-273.066c70.827 0 128 57.173 128 128s-57.173 128-128 128-128-57.173-128-128 57.174-128 128-128zm-228.693 349.013 3.413-11.093c5.724 6.583 11.839 12.378 18.203 17.361.703.56 1.412 1.106 2.124 1.646.047.035.093.073.14.108 5.585 4.218 11.458 7.82 17.575 10.691 6.336 3.046 12.781 5.301 19.232 6.711l-19.662 34.408-35.906-53.858c-.864-.864-1.728-1.626-2.624-2.23zm75.52 36.373 18.712 32.747h-37.425zm-196.693 42.987c0-8.533 5.12-17.067 11.947-20.48 42.667-22.187 74.24-34.133 101.547-38.4l38.997 58.496-14.251 49.877h-138.24zm156.769 49.493 12.19-42.667h54.613l11.947 42.666h-78.75zm235.764-49.493v49.493h-138.24l-14.091-49.318 39.152-59.723c27.866 4.417 59.142 16.333 100.379 38.214 7.68 4.267 12.8 12.801 12.8 21.334zm-121.173-80.213-40.763 61.145-20.099-35.174c22.274-4.183 41.923-17.933 57.55-36.737zm-6.592-35.431c-.412.398-.779.833-1.088 1.297-17.589 26.383-39.672 42.279-62.74 44.18-.022.002-.044.004-.066.006-.672.055-1.344.093-2.018.124-.114.005-.227.014-.34.018-.604.024-1.21.032-1.815.037-23.763-.188-48.33-16.369-66.994-44.365-.748-1.122-1.823-2.079-3.083-2.73-15.071-23.988-24.224-53.75-24.224-80.897v-44.373c0-55.467 41.813-100.693 93.867-100.693 5.082 0 9.326.841 14.395 1.688-.4 1.365-.784 2.736-1.145 4.117-2.998 10.533-4.407 21.986-4.667 33.047-.001.05-.002.099-.004.149-.028 1.227-.046 2.45-.046 3.665 0 1.592.035 3.175.085 4.754.012.38.028.759.043 1.138.057 1.441.133 2.876.232 4.306.009.128.015.258.024.386 3.81 53.016 36.011 98.074 81.513 120.077-3.912 18.849-11.538 37.811-21.929 54.069z"/><path d="m278.04 127c3.413 7.68 8.533 14.507 15.36 21.333l67.413 67.413c5.12 5.973 11.093 10.24 17.067 13.653 10.24 5.973 20.48 8.533 29.867 8.533 13.653 0 26.453-5.973 37.547-16.213l8.533-8.533c5.973-6.827 7.68-17.067 3.413-25.6-6.827-13.653-29.867-27.307-32.427-29.013-5.12-3.413-11.093-4.267-16.213-2.56-4.267.853-6.827 3.413-9.387 6.827s-5.973 7.68-6.827 8.533c-5.12 3.413-8.533 3.413-13.653-1.707l-37.547-37.547c-5.12-5.12-5.12-8.533-1.707-13.653.853-.853 5.12-5.12 8.533-7.68s5.973-5.12 6.827-9.387c1.707-5.12.853-11.093-2.56-16.213-1.707-2.56-15.36-25.6-29.013-32.427-8.533-5.12-18.773-3.413-25.6 3.413l-8.533 8.533c-17.92 17.922-21.333 39.255-11.093 62.295zm23.04-49.493 8.533-8.533c.853-1.707 3.413-1.707 5.12-.853 7.68 3.413 17.067 17.92 22.187 25.6.853 1.707.853 2.56.853 2.56l-.853.853c-10.24 8.533-11.093 10.24-11.947 11.093-8.533 12.8-6.827 25.6 3.413 35.84l37.547 37.547c11.093 10.24 23.04 11.947 35.84 3.413.853-.853 2.56-1.707 11.093-11.947l.853-.853c.853 0 1.707 0 3.413.853 7.68 5.12 22.187 15.36 25.6 22.187.853 1.707.853 3.413-.853 5.12l-8.533 8.533c-14.507 13.653-29.013 16.213-46.933 5.973-5.12-2.56-9.387-5.973-13.653-10.24l-67.413-67.413c-5.12-5.973-9.387-11.093-11.947-17.067-7.68-16.213-5.12-29.866 7.68-42.666z"/></g></svg>